<?xml version="1.0" encoding="UTF-8"?>
<svg width="1e3" height="1e3" version="1.1" viewBox="0 0 1e3 1e3" xmlns="http://www.w3.org/2000/svg">
 <path d="m460 100a420 420 0 0 0-401.6 298.3l-58.4 15.65v40l1e3 -267.9v-40l-253 67.78a420 420 0 0 0-287-113.8zm0 40c88.23 0 173.3 30.69 240.9 86.16l-24.13 6.465c-62.1-46.86-138.1-72.62-216.8-72.62-149.1 0-276.9 90.48-331.6 219.6l-24.05 6.443c54.22-143.7 193.1-246 355.7-246zm540 66.03-1e3 267.9v320l1e3 -267.9zm0 340-1e3 267.9v40l268.3-71.89a420 420 0 0 0 291.7 117.9 420 420 0 0 0 403.6-304.2 420 420 0 0 0 0-2e-3l36.45-9.766zm-82.23 62.03c-18.76 52.4-48.97 100.5-89.07 140.6-71.26 71.26-167.9 111.3-268.7 111.3-90.36 0-177.4-32.19-245.8-90.21l23.81-6.381c63.03 49.37 141.1 76.6 222 76.6 95.48 0 187-37.93 254.6-105.4 34.62-34.62 61.46-75.56 79.39-120.1z" fill="#ed683c"/>
 <g>
  <g>
   <path d="m93.02 700.3-33.02-173.6 34.45-9.23 19.59 117.8 18.16-127.9 36.65-9.82-33.46 191.4z"/>
   <path d="m187.6 675v-182.5l40.28-10.79v182.5z"/>
   <path d="m295.3 536.6 7.704-2.064q12.99-3.48 17.61-10.55 4.732-7.101 4.732-19.76 0-21.57-23.66-15.23l-6.383 1.71zm0 81.33 8.474-2.271q13.1-3.509 18.38-11.31 5.283-7.799 5.283-21.56 0-15.41-5.393-20.35t-18.82-1.341l-7.924 2.123zm-40.28 38.97v-182.5l47.54-12.74q10.24-2.742 18.16-3.765 8.034-1.162 15.85-0.1744 7.924 0.9583 12.99 4.774 5.173 3.677 8.254 11.66 2.861 7.377 2.751 18.19 0 0.7704 0 1.541-0.4402 32.03-26.74 43.81 15.74-2.126 23.99 6.778 8.254 8.904 8.474 28.43 0 0.6603 0 1.211-0.1101 26.77-13.98 43.48-14.31 17.04-41.16 24.24z"/>
   <path d="m387.5 621.4v-182.5l81.99-21.97v27.51l-41.71 11.18v45.12l31.81-8.522v28.06l-31.81 8.522v54.48l42.15-11.29v27.29z"/>
   <path d="m540.6 582.9q-15.3 4.099-26.08 2.807-10.79-1.402-17.06-7.975-6.163-6.603-8.914-16.65-2.751-10.05-2.751-24.58v-65.04q0-14.86 2.751-26.49 2.751-11.74 8.914-21.54 6.273-9.935 16.95-16.87 10.79-7.072 26.19-11.2 14.75-3.952 25.09-2.982 10.46 0.9404 16.29 6.641 5.943 5.671 8.474 14.24 2.641 8.537 2.641 20.75v16.07l-39.4 10.56v-18.38q0-4.292-0.1101-6.464-0.11-2.172-0.7704-5.406-0.6603-3.345-1.981-4.752-1.211-1.436-3.852-2.049-2.641-0.723-6.383 0.2797t-6.383 3.141q-2.641 2.028-4.072 4.393-1.321 2.225-2.201 5.872-0.7704 3.508-0.9905 6.318-0.1101 2.781-0.1101 6.853v85.07q0 11.01 2.861 16.07 2.861 4.956 10.9 2.803 3.632-0.9731 6.163-2.972 2.641-2.138 3.962-4.363 1.321-2.225 1.981-5.813 0.7704-3.618 0.8804-6.179 0.1101-2.561 0.1101-6.743v-19.15l39.4-10.56v15.74q0 9.795-1.541 18.13-1.541 8.337-5.283 16.38-3.632 7.907-9.575 14.23-5.833 6.295-14.97 11.49-9.135 5.089-21.13 8.303z"/>
   <path d="m654.3 487.1 19.48-5.22-9.795-68.03zm-47.87 75.67 34.56-191.7 45.56-12.21 34.34 173.3-37.2 9.967-6.273-37.06-26.63 7.136-6.163 40.39z"/>
   <path d="m787.7 516.7q-25.97 6.959-38.74-3.377-12.66-10.48-13.65-40.48l34.56-14.54q0.2201 17.11 4.072 23.89 3.962 6.642 11.78 4.549 10.24-2.742 10.24-15.95 0-7.374-2.641-12.83-2.641-5.565-6.493-8.935-3.852-3.37-10.79-7.455l-16.18-9.642q-5.833-3.5-9.685-6.65-3.852-3.15-7.594-7.87-3.632-4.86-5.393-11.43-1.761-6.572-1.761-15.05 0-22.78 13.65-38.87 13.65-16.09 37.42-22.57 8.144-2.182 14.75-2.191 6.713-0.0379 11.23 1.614 4.622 1.623 8.034 5.111 3.522 3.348 5.503 7.22 2.091 3.732 3.412 8.881 1.431 5.009 1.871 9.404 0.5503 4.365 0.7704 9.478l-34.89 13.86q-0.1101-4.593-0.3302-7.505-0.11-3.052-0.5503-6.346-0.4402-3.294-1.211-5.178-0.7704-1.885-2.091-3.292-1.211-1.547-3.192-1.786-1.871-0.2691-4.512 0.5487-5.283 1.526-8.144 6.694-2.751 5.029-2.751 10.42 0 5.173 1.211 9.14 1.321 3.828 4.402 6.964 3.192 3.107 5.173 4.557 1.981 1.45 6.603 4.394l15.52 9.489q6.383 4.012 11.01 8.057 4.622 3.934 8.804 9.527 4.182 5.483 6.273 12.96 2.201 7.334 2.201 16.47 0 19.81-13.21 36.45-13.21 16.53-34.67 22.28z"/>
   <path d="m871.9 491.6v-152.6l-28.06 7.52v-29.82l96.19-25.77v29.82l-27.73 7.431v152.6z"/>
   <path d="m557 795.3q-9.59 2.57-15.67-1.247-6.045-3.868-9.405-14.95l12.24-5.37q1.78 6.318 3.975 8.822 2.225 2.453 5.11 1.68 3.779-1.013 2.473-5.889-0.7296-2.723-2.315-4.737-1.596-2.055-3.454-3.299-1.858-1.244-5.006-2.753l-7.357-3.56q-2.655-1.292-4.491-2.455-1.836-1.163-3.784-2.906-1.918-1.794-3.265-4.221-1.347-2.427-2.186-5.556-2.254-8.412 1.555-14.35 3.809-5.942 12.58-8.335 3.007-0.8058 5.62-0.8089 2.653-0.014 4.602 0.5961 1.99 0.5992 3.685 1.887 1.725 1.236 2.892 2.666 1.197 1.378 2.229 3.279 1.062 1.85 1.671 3.472 0.6496 1.612 1.243 3.5l-12.44 5.118q-0.498-1.696-0.8732-2.771-0.3456-1.127-0.8456-2.343-0.5001-1.216-0.9914-1.912-0.4913-0.6959-1.153-1.215-0.6321-0.5711-1.44-0.6595-0.7671-0.0993-1.731 0.2026-1.94 0.5633-2.561 2.472-0.5913 1.857-0.0577 3.848 0.5118 1.91 1.383 3.375 0.9014 1.414 2.431 2.572 1.57 1.147 2.498 1.683 0.9275 0.5355 3.048 1.622l7.08 3.504q2.923 1.482 5.153 2.975 2.219 1.453 4.427 3.518 2.198 2.024 3.765 4.784 1.597 2.708 2.5 6.081 1.96 7.315-1.621 13.46-3.592 6.102-11.52 8.225z"/>
   <path d="m581.9 787.6-18.05-67.38 14.91-3.996 7.295 27.23 10.36-2.777-7.295-27.23 14.91-3.996 18.05 67.38-14.91 3.996-7.905-29.5-10.36 2.777 7.905 29.5z"/>
   <path d="m651.9 769.8q-5.608 1.503-9.982 1.107-4.345-0.4474-7.486-2.742-3.111-2.346-5.235-6.045-2.083-3.71-3.531-9.115l-6.664-24.87q-1.459-5.445-1.499-9.659-0.0105-4.266 1.522-7.812 1.573-3.557 5.123-6.077 3.59-2.53 9.198-4.033 10.93-2.929 17.15 1.416 6.246 4.293 9.186 15.27l6.664 24.87q2.94 10.97-0.3011 17.89-3.211 6.871-14.14 9.8zm-5.267-10.39q1.106 0.2263 2.447-0.133 1.341-0.3593 2.197-1.068 0.8446-0.749 1.188-1.581 0.3323-0.873 0.3119-2.087 0.0202-1.225-0.1598-2.222-0.191-1.038-0.5612-2.419l-8.657-32.31q-0.3593-1.341-0.7019-2.295-0.3536-0.9942-0.9726-2.004-0.5894-1.062-1.303-1.611-0.7134-0.5493-1.808-0.735-1.106-0.2263-2.447 0.133t-2.186 1.108q-0.8149 0.6974-1.158 1.53-0.3541 0.7918-0.3228 2.046 0.0204 1.214 0.1896 2.17 0.2098 0.9456 0.5909 2.368l8.657 32.31q0.3811 1.422 0.6831 2.387 0.3317 0.9129 0.932 2.015 0.5893 1.062 1.303 1.611 0.7134 0.5493 1.779 0.7865z"/>
   <path d="m686.6 759.6-26.18-65.2 12.64-3.386 14.47 38.07-5.325-40.52 9.834-2.635 15.84 37.48-6.368-40.02 12.48-3.343 9.885 69.57-12.92 3.463-16.62-39.1 5.362 42.12z"/>
  </g>
  <path d="m402.1 287.1c-8.207-2.807-13.91-5.28-22.1-9.581-9.977-5.239-14.99-8.669-19.29-13.2-3.761-3.96-6.163-8.601-6.754-13.05-1.11-8.36 2.338-14.8 10.02-18.7 2.004-1.019 6.87-2.325 9.145-2.454 5.032-0.2849 10.38 0.7019 15.14 2.79 3.351 1.473 2.86 1.514 4.181-0.3534 3.007-4.254 7.19-8.101 11.15-10.26 7.431-4.045 16.23-4.2 21.83-0.3827 2.8 1.909 4.809 4.339 6.285 7.606 3.394 7.508 2.145 16.52-3.853 27.8-4.136 7.775-10.24 16.89-16 23.9-2.916 3.546-5.871 6.897-6.15 6.971-0.1366 0.0366-1.758-0.4497-3.602-1.081z" stroke-width=".2007"/>
 </g>
 <g fill="none" stroke="#000" stroke-width="10.14">
  <path d="m279.8 288.3 203.8-54.61" stroke-linecap="round"/>
  <path d="m479.4 218 35.56 7.276-27.16 24.08z" stroke-linejoin="round"/>
  <path d="m326.8 275.7-19.88-11.48-31.36 8.402 19.88 11.48-11.48 19.88 31.36-8.402z" stroke-linecap="round" stroke-linejoin="round"/>
 </g>
</svg>
